<svg width="948" height="194" viewBox="0 0 948 194" fill="none" xmlns="http://www.w3.org/2000/svg">
<rect width="948" height="193" fill="#C06D6D"/>
<ellipse cx="77" cy="96.5" rx="18" ry="19.5" fill="#16712F"/>
<ellipse cx="54.5" cy="96.5" rx="17.5" ry="19.5" fill="#16712F"/>
<rect x="49" y="116" width="31" height="77" fill="#430C0C"/>
<ellipse cx="77" cy="115" rx="18" ry="19" fill="#16712F"/>
<circle cx="45" cy="115" r="19" fill="#16712F"/>
<circle cx="79.5" cy="131.5" r="15.5" fill="#16712F"/>
<ellipse cx="58.5" cy="134.5" rx="13.5" ry="15.5" fill="#16712F"/>
<ellipse cx="166" cy="96.5" rx="18" ry="19.5" fill="#16712F"/>
<ellipse cx="143.5" cy="96.5" rx="17.5" ry="19.5" fill="#16712F"/>
<rect x="138" y="116" width="31" height="77" fill="#430C0C"/>
<ellipse cx="166" cy="115" rx="18" ry="19" fill="#16712F"/>
<circle cx="134" cy="115" r="19" fill="#16712F"/>
<circle cx="168.5" cy="131.5" r="15.5" fill="#16712F"/>
<ellipse cx="147.5" cy="134.5" rx="13.5" ry="15.5" fill="#16712F"/>
<ellipse cx="266" cy="96.5" rx="18" ry="19.5" fill="#16712F"/>
<ellipse cx="243.5" cy="96.5" rx="17.5" ry="19.5" fill="#16712F"/>
<rect x="238" y="116" width="31" height="77" fill="#430C0C"/>
<ellipse cx="266" cy="115" rx="18" ry="19" fill="#16712F"/>
<circle cx="234" cy="115" r="19" fill="#16712F"/>
<circle cx="268.5" cy="131.5" r="15.5" fill="#16712F"/>
<ellipse cx="247.5" cy="134.5" rx="13.5" ry="15.5" fill="#16712F"/>
<rect x="783" y="96" width="140" height="97" fill="#484539"/>
<rect x="690" y="135" width="93" height="59" fill="#5E5959"/>
<rect x="840" y="154" width="25" height="39" fill="#BC6262"/>
<path d="M852.5 39L935.205 96.75H769.795L852.5 39Z" fill="#312727"/>
<rect x="708" y="163" width="57" height="30" fill="white"/>
<circle cx="860.5" cy="175.5" r="2.5" fill="#C4C4C4"/>
<line x1="708" y1="187.5" x2="765" y2="187.5" stroke="black"/>
<rect x="797" y="128" width="25" height="25" fill="#8CB2EA"/>
<line x1="810.5" y1="128" x2="810.5" y2="153" stroke="black"/>
<line x1="708" y1="172.5" x2="765" y2="172.5" stroke="black"/>
<rect x="880" y="128" width="25" height="25" fill="#8CB2EA"/>
<line x1="708" y1="179.5" x2="765" y2="179.5" stroke="black"/>
<line x1="797" y1="140.5" x2="822" y2="140.5" stroke="black"/>
<path d="M893 128V153" stroke="black"/>
<path d="M737 103L785.497 136H688.503L737 103Z" fill="#312727"/>
<line x1="880" y1="140.5" x2="905" y2="140.5" stroke="black"/>
</svg>
