<svg width="55" height="48" viewBox="0 0 55 48" fill="none" xmlns="http://www.w3.org/2000/svg">
<ellipse cx="23" cy="21.12" rx="23" ry="21.12" fill="#3C8E94"/>
<ellipse cx="33" cy="27.36" rx="22" ry="20.64" fill="#424242"/>
<path d="M24.4854 20.2031H28.7217C29.6826 20.2031 30.4941 20.3496 31.1562 20.6426C31.8242 20.9355 32.3311 21.3691 32.6768 21.9434C33.0283 22.5117 33.2041 23.2119 33.2041 24.0439C33.2041 24.6299 33.084 25.166 32.8438 25.6523C32.6094 26.1328 32.2695 26.543 31.8242 26.8828C31.3848 27.2168 30.8574 27.4658 30.2422 27.6299L29.7676 27.8145H25.7861L25.7686 26.4346H28.7744C29.3838 26.4346 29.8906 26.3291 30.2949 26.1182C30.6992 25.9014 31.0039 25.6113 31.209 25.248C31.4141 24.8848 31.5166 24.4834 31.5166 24.0439C31.5166 23.5518 31.4199 23.1211 31.2266 22.752C31.0332 22.3828 30.7285 22.0986 30.3125 21.8994C29.9023 21.6943 29.3721 21.5918 28.7217 21.5918H26.1816V33H24.4854V20.2031ZM31.9648 33L28.8535 27.1992L30.6201 27.1904L33.7754 32.8945V33H31.9648ZM43.3027 28.9307H44.9902C44.9023 29.7393 44.6709 30.4629 44.2959 31.1016C43.9209 31.7402 43.3906 32.2471 42.7051 32.6221C42.0195 32.9912 41.1641 33.1758 40.1387 33.1758C39.3887 33.1758 38.7061 33.0352 38.0908 32.7539C37.4814 32.4727 36.957 32.0742 36.5176 31.5586C36.0781 31.0371 35.7383 30.4131 35.498 29.6865C35.2637 28.9541 35.1465 28.1396 35.1465 27.2432V25.9688C35.1465 25.0723 35.2637 24.2607 35.498 23.5342C35.7383 22.8018 36.0811 22.1748 36.5264 21.6533C36.9775 21.1318 37.5195 20.7305 38.1523 20.4492C38.7852 20.168 39.4971 20.0273 40.2881 20.0273C41.2549 20.0273 42.0723 20.209 42.7402 20.5723C43.4082 20.9355 43.9268 21.4395 44.2959 22.084C44.6709 22.7227 44.9023 23.4639 44.9902 24.3076H43.3027C43.2207 23.71 43.0684 23.1973 42.8457 22.7695C42.623 22.3359 42.3066 22.002 41.8965 21.7676C41.4863 21.5332 40.9502 21.416 40.2881 21.416C39.7197 21.416 39.2188 21.5244 38.7852 21.7412C38.3574 21.958 37.9971 22.2656 37.7041 22.6641C37.417 23.0625 37.2002 23.54 37.0537 24.0967C36.9072 24.6533 36.834 25.2715 36.834 25.9512V27.2432C36.834 27.8701 36.8984 28.459 37.0273 29.0098C37.1621 29.5605 37.3643 30.0439 37.6338 30.46C37.9033 30.876 38.2461 31.2041 38.6621 31.4443C39.0781 31.6787 39.5703 31.7959 40.1387 31.7959C40.8594 31.7959 41.4336 31.6816 41.8613 31.4531C42.2891 31.2246 42.6113 30.8965 42.8281 30.4688C43.0508 30.041 43.209 29.5283 43.3027 28.9307Z" fill="#3C8E94"/>
</svg>
